<?xml version="1.0" encoding="utf-8"?>
<!-- Generator: Adobe Illustrator 21.1.0, SVG Export Plug-In . SVG Version: 6.00 Build 0)  -->
<svg version="1.1" xmlns="http://www.w3.org/2000/svg" xmlns:xlink="http://www.w3.org/1999/xlink" x="0px" y="0px"
	 viewBox="0 0 22.6 33.1" style="enable-background:new 0 0 22.6 33.1;" xml:space="preserve">
<style type="text/css">
	.st0{fill:#8D6A29;}
	.st1{fill:#FFF200;}
	.st2{fill:#493728;}
	.st3{fill:#8C8934;}
	.st4{fill:#F5C400;}
	.st5{fill:none;stroke:#F5C400;stroke-width:1.1164;stroke-miterlimit:10;}
	.st6{fill:none;stroke:#F5C400;stroke-miterlimit:10;}
	.st7{fill:#493728;stroke:#493728;stroke-width:0.8184;stroke-miterlimit:10;}
	.st8{fill:#493728;stroke:#F8F4F1;stroke-width:0.4008;stroke-miterlimit:2;}
	.st9{fill:none;stroke:#F5C400;stroke-width:1.7008;stroke-miterlimit:10;}
	.st10{fill:#8C8934;stroke:#8C8934;stroke-width:4;stroke-miterlimit:10;}
	.st11{fill:none;stroke:#8C8934;stroke-width:3;stroke-miterlimit:10;}
	.st12{fill:#F5C400;stroke:#F5C400;stroke-width:2.3804;stroke-miterlimit:10;}
	.st13{fill:none;stroke:#F5C400;stroke-width:3;stroke-miterlimit:10;}
	.st14{fill:#8D6A29;stroke:#8D6A29;stroke-width:5;stroke-miterlimit:10;}
	.st15{fill:none;stroke:#8D6A29;stroke-width:3;stroke-miterlimit:10;}
	.st16{fill:#8C8934;stroke:#8C8934;stroke-width:3.1221;stroke-miterlimit:10;}
	.st17{fill:#8C8934;stroke:#8C8934;stroke-width:2.8346;stroke-miterlimit:10;}
	.st18{fill:#F5C400;stroke:#F5C400;stroke-width:0.6234;stroke-miterlimit:10;}
	.st19{fill:#8D6A29;stroke:#8D6A29;stroke-width:0.5;stroke-miterlimit:10;}
	.st20{fill:#8D6A29;stroke:#8D6A29;stroke-width:1.114;stroke-miterlimit:10;}
	.st21{fill:#8D6A29;stroke:#8D6A29;stroke-width:0.6134;stroke-miterlimit:10;}
	.st22{fill:none;stroke:#8D6A29;stroke-width:2.5;stroke-miterlimit:10;}
	.st23{fill:#8D6A29;stroke:#8D6A29;stroke-width:0.1417;stroke-miterlimit:10;}
	.st24{fill:none;stroke:#8D6A29;stroke-width:1.1339;stroke-miterlimit:10;}
	.st25{fill:#493728;stroke:#493728;stroke-width:0.1417;stroke-miterlimit:10;}
</style>
<g id="foni">
</g>
<g id="Layer_2">
</g>
<g id="Grid">
</g>
<g id="ფონი">
</g>
<g id="masala">
	<g>
		<path class="st25" d="M12,0.1c0.8,0.1,1.6,0.2,2.3,0.4C16.2,1,17.8,2,19.2,3.4c1.6,1.6,2.7,3.6,3.1,5.8c0.7,4.2-0.5,7.7-3.7,10.6
			c-0.9,0.8-1.3,1.8-1.5,2.9c0,0.2-0.1,0.4-0.1,0.6c-0.1,0.4-0.2,0.5-0.6,0.5c-0.9,0-1.8,0-2.7,0c-2.4,0-4.9,0-7.3,0
			c-0.6,0-0.8-0.1-0.8-0.7c-0.1-1-0.4-1.9-1-2.7c-0.2-0.3-0.4-0.6-0.7-0.8c-2.4-2.2-3.7-5-3.7-8.3C0,6.9,2.8,2.7,6.9,1
			C8,0.5,9.2,0.2,10.4,0.1c0.1,0,0.2,0,0.2,0C11.1,0.1,11.5,0.1,12,0.1z M11.3,22.9C11.3,22.9,11.3,22.9,11.3,22.9
			c1.5,0,2.9,0,4.4,0c0.3,0,0.5-0.1,0.5-0.4c0.2-1,0.6-2,1.2-2.8c0.4-0.5,0.9-0.9,1.3-1.4c1.7-1.8,2.6-4,2.8-6.5
			c0.1-2-0.3-3.8-1.3-5.6C18.9,4,17,2.4,14.5,1.6c-2.1-0.7-4.3-0.7-6.4,0C5.6,2.4,3.7,4,2.4,6.3c-1.1,1.9-1.5,4-1.2,6.3
			c0.3,2.1,1.1,4,2.6,5.6c0.4,0.4,0.8,0.8,1.2,1.2c0.8,0.9,1.3,2,1.5,3.2c0.1,0.3,0.2,0.4,0.5,0.4C8.4,22.9,9.8,22.9,11.3,22.9z"/>
		<path class="st25" d="M11.3,30c-1.7,0-3.3,0-5,0c-0.1,0-0.2,0-0.4,0c-0.3,0-0.4-0.2-0.4-0.5C5.6,29.2,5.8,29,6,29
			c0.1,0,0.2,0,0.3,0c3.3,0,6.6,0,10,0c0.1,0,0.3,0,0.4,0c0.2,0.1,0.4,0.2,0.4,0.5c0,0.2-0.1,0.4-0.4,0.5c-0.1,0-0.3,0-0.4,0
			C14.6,30,13,30,11.3,30z"/>
		<path class="st25" d="M11.3,25.9c1.7,0,3.3,0,5,0c0.1,0,0.2,0,0.3,0c0.3,0,0.4,0.2,0.4,0.5c0,0.3-0.2,0.4-0.4,0.5
			c-0.1,0-0.2,0-0.4,0c-3.3,0-6.6,0-9.9,0c-0.1,0-0.3,0-0.4,0c-0.3-0.1-0.4-0.2-0.4-0.5C5.6,26.2,5.7,26,6,26c0.1,0,0.2,0,0.4,0
			C8,25.9,9.7,25.9,11.3,25.9z"/>
		<path class="st25" d="M11.3,33c-0.7,0-1.4,0-2.1,0c-0.4,0-0.6-0.2-0.6-0.5c0-0.3,0.2-0.5,0.6-0.5c1.4,0,2.7,0,4.1,0
			c0.4,0,0.6,0.2,0.6,0.5c0,0.3-0.2,0.5-0.6,0.5C12.7,33,12,33,11.3,33z"/>
	</g>
</g>
<g id="Layer_5">
</g>
<g id="Layer_7">
</g>
</svg>
