<?xml version="1.0" encoding="utf-8"?>
<!-- Generator: Adobe Illustrator 21.1.0, SVG Export Plug-In . SVG Version: 6.00 Build 0)  -->
<svg version="1.1" xmlns="http://www.w3.org/2000/svg" xmlns:xlink="http://www.w3.org/1999/xlink" x="0px" y="0px"
	 viewBox="0 0 39 24.2" style="enable-background:new 0 0 39 24.2;" xml:space="preserve">
<style type="text/css">
	.st0{fill:#8D6A29;}
	.st1{fill:#FFF200;}
	.st2{fill:#493728;}
	.st3{fill:#8C8934;}
	.st4{fill:#F5C400;}
	.st5{fill:none;stroke:#F5C400;stroke-width:1.1164;stroke-miterlimit:10;}
	.st6{fill:none;stroke:#F5C400;stroke-miterlimit:10;}
	.st7{fill:#493728;stroke:#493728;stroke-width:0.8184;stroke-miterlimit:10;}
	.st8{fill:#493728;stroke:#F8F4F1;stroke-width:0.4008;stroke-miterlimit:2;}
	.st9{fill:none;stroke:#F5C400;stroke-width:1.7008;stroke-miterlimit:10;}
	.st10{fill:#8C8934;stroke:#8C8934;stroke-width:4;stroke-miterlimit:10;}
	.st11{fill:none;stroke:#8C8934;stroke-width:3;stroke-miterlimit:10;}
	.st12{fill:#F5C400;stroke:#F5C400;stroke-width:2.3804;stroke-miterlimit:10;}
	.st13{fill:none;stroke:#F5C400;stroke-width:3;stroke-miterlimit:10;}
	.st14{fill:#8D6A29;stroke:#8D6A29;stroke-width:5;stroke-miterlimit:10;}
	.st15{fill:none;stroke:#8D6A29;stroke-width:3;stroke-miterlimit:10;}
	.st16{fill:#8C8934;stroke:#8C8934;stroke-width:3.1221;stroke-miterlimit:10;}
	.st17{fill:#8C8934;stroke:#8C8934;stroke-width:2.8346;stroke-miterlimit:10;}
	.st18{fill:#F5C400;stroke:#F5C400;stroke-width:0.6234;stroke-miterlimit:10;}
	.st19{fill:#8D6A29;stroke:#8D6A29;stroke-width:0.5;stroke-miterlimit:10;}
	.st20{fill:#8D6A29;stroke:#8D6A29;stroke-width:1.114;stroke-miterlimit:10;}
	.st21{fill:#8D6A29;stroke:#8D6A29;stroke-width:0.6134;stroke-miterlimit:10;}
	.st22{fill:none;stroke:#8D6A29;stroke-width:2.5;stroke-miterlimit:10;}
	.st23{fill:#8D6A29;stroke:#8D6A29;stroke-width:0.1417;stroke-miterlimit:10;}
	.st24{fill:none;stroke:#8D6A29;stroke-width:1.1339;stroke-miterlimit:10;}
	.st25{fill:#493728;stroke:#493728;stroke-width:0.1417;stroke-miterlimit:10;}
</style>
<g id="foni">
</g>
<g id="Layer_2">
</g>
<g id="Grid">
</g>
<g id="ფონი">
</g>
<g id="masala">
	<path class="st2" d="M19.6,24.2c-0.3,0-0.6,0-0.9-0.1c-0.9-0.2-1.7-0.6-2.5-1.2L16,22.7c-2.5-1.9-5.2-3.9-7.5-6
		c-0.4-0.4-0.9-0.8-1.3-1.2L6.7,15l-0.1-0.2H6.5l-0.2-0.2L6.1,15c-0.4,0.9-0.4,0.9-1.3,0.9l-4,0c-0.7,0-0.8-0.1-0.8-0.8V0.8
		C0,0.1,0.3,0,0.6,0c0.1,0,0.2,0,0.2,0l0.8,0.1c1.6,0.2,3.3,0.4,5,0.7C7.3,0.9,8,1.2,8.7,1.5c0.6,0.3,0.7,0.4,0.6,1.2
		c0,0.1,0,0.1,0,0.2l0,0.4c0,0,0.6,0,0.7,0l2.6,0c1.1,0,2.2,0,3.3,0c0.3,0,0.5-0.1,0.7-0.2c1.1-0.9,2.3-1.3,3.5-1.3
		c0.8,0,1.7,0.2,2.6,0.6c1.1,0.5,2.3,0.9,3.4,1.4l1.3,0.5c0.1,0,0.2,0.1,0.3,0.1l0.7,0.2l-0.1-0.5c-0.1-0.5,0.1-0.7,0.7-0.9
		c1.8-0.7,3.7-1.1,5.9-1.3c0.8-0.1,1.7-0.1,2.6-0.2l1.1,0c0.5,0,0.7,0.1,0.7,0.8v14.4c0,0.6-0.2,0.8-0.8,0.8l-4.3,0
		c-0.7,0-0.8,0-1-0.7c0-0.1-0.1-0.2-0.1-0.3l-0.2-0.5L32,16.5c-0.3,0.2-0.6,0.4-0.9,0.6c-0.2,0.1-0.2,0.4-0.2,0.6
		c0.1,1.4-0.9,2.5-2.3,2.6c-0.3,0-0.5,0.2-0.7,0.4c-0.5,0.8-1.5,1.4-2.4,1.4c-0.1,0-0.2,0-0.3,0c-0.1,0-0.1,0-0.1,0
		c-0.4,0-0.5,0.2-0.6,0.4c-0.5,0.8-1.4,1.3-2.3,1.3c-0.2,0-0.4,0-0.6-0.1l0,0l-0.1,0c-0.1,0-0.3,0-0.4,0.1
		C20.6,24,20.1,24.2,19.6,24.2z M8.8,5.1C8.8,5.4,8.7,5.7,8.6,6C8.4,7,8.1,8.1,7.8,9.1c-0.3,1.2-0.7,2.5-1,3.7
		C6.8,13,6.8,13.4,7,13.6L7.3,14c0.6,0.7,1.3,1.4,2,2c2.7,2.5,5.7,4.7,8,6.3c0.4,0.3,0.9,0.4,1.3,0.6l0.3,0.1
		c0.2,0.1,0.4,0.1,0.6,0.1c0.1,0,0.2,0,0.3,0l0.7,0.1L20,22.5c0-0.1-0.1-0.1-0.1-0.1c0,0-2.4-2.4-3.1-3.2c-0.1-0.1-0.2-0.3-0.3-0.4
		c-0.1-0.2,0-0.4,0.2-0.6c0.1-0.1,0.2-0.1,0.3-0.1c0.1,0,0.3,0.1,0.4,0.2c0.3,0.3,0.5,0.5,0.8,0.8c0.3,0.3,0.5,0.6,0.8,0.8
		c0.6,0.6,1.3,1.2,1.9,1.8l0.5,0.5c0.3,0.3,0.6,0.4,0.9,0.4c0.1,0,0.2,0,0.4-0.1c0.6-0.2,1-0.6,1.2-1.1l0.1-0.2c0,0-2.8-2.8-3.7-3.8
		c-0.1-0.1-0.2-0.2-0.3-0.3c-0.1-0.2-0.1-0.4,0.1-0.6c0.1-0.1,0.2-0.1,0.4-0.1c0.1,0,0.2,0,0.3,0.1c0.1,0.1,0.2,0.2,0.3,0.3l1.2,1.2
		c0.8,0.8,1.7,1.7,2.5,2.5c0.3,0.3,0.7,0.4,1.1,0.4l0,0c0.7,0,1.2-0.4,1.5-1l0.1-0.2l-0.1-0.1c-0.1-0.1-0.1-0.1-0.1-0.2l-4.4-4.4
		c-0.1-0.1-0.2-0.2-0.3-0.3c-0.1-0.2-0.1-0.4,0.1-0.5c0.1-0.1,0.2-0.2,0.3-0.2c0,0,0.1,0,0.1,0c0.2,0.1,0.3,0.2,0.5,0.3
		c0.8,0.8,1.6,1.6,2.5,2.5c0.7,0.7,1.3,1.3,2,2c0.2,0.2,0.5,0.4,0.8,0.4c0.2,0,0.4-0.1,0.7-0.2c0.7-0.4,0.8-1.1,0.4-1.8
		c-0.7-1.2-1.7-2-2.6-2.8c-2.2-1.8-4.4-3.7-6.6-5.5c-0.2-0.1-0.4-0.1-0.5-0.1c-0.1,0-0.2,0-0.2,0c-0.2,0.1-0.3,0.1-0.5,0.2
		C19.1,9,19,9.1,18.8,9.1c-0.4,0.1-0.7,0.3-1,0.6c-0.8,0.9-1.8,1.4-2.8,1.4c-0.2,0-0.4,0-0.6-0.1c-0.8-0.1-1.3-0.4-1.6-0.9
		c-0.3-0.4-0.4-1-0.2-1.6c0.3-1.4,1.1-2.6,1.9-3.4l0.7-0.8H9L8.8,5.1z M37.2,2.7c-2.1,0-6.1,0.7-7.4,1.3l-0.3,0.1l0.8,2
		c0.5,1.3,1,2.6,1.5,3.9c0.5,1.2,0.9,2.5,1.3,3.7c0.2,0.7,0.5,1.4,0.7,2.2c0,0,0.2,0.5,0.5,0.5c0.7,0,1.3,0,2,0l1.7,0V2.8l-0.3,0
		C37.5,2.7,37.3,2.7,37.2,2.7z M20.3,7.5c0.2,0,0.3,0.1,0.5,0.2c1.1,0.9,2.1,1.9,3.2,2.8c0.5,0.4,0.9,0.8,1.4,1.2
		c1.7,1.4,3.4,2.8,4.8,4.5l0.2,0.2l0.6-0.4c0.2-0.2,0.5-0.3,0.7-0.5c0.4-0.3,0.6-0.6,0.4-1.1L32,14c-0.8-2.2-1.7-4.5-2.4-6.7
		c-0.3-0.8-0.8-1.3-1.6-1.6c-1.3-0.5-2.7-1-4-1.6c-0.7-0.3-1.4-0.6-2.1-0.9c-0.6-0.2-1.2-0.4-1.8-0.4c-0.7,0-1.4,0.2-2.1,0.6
		c-1.3,0.8-2.5,1.9-3.4,3.1c-0.6,0.8-1,1.6-1.1,2.3c0,0.2-0.1,0.8,0.5,1c0.4,0.1,0.7,0.2,1.1,0.2c0.5,0,0.9-0.1,1.3-0.4
		c0.3-0.2,0.5-0.4,0.7-0.7c0.1-0.1,0.2-0.3,0.4-0.4l0.1-0.1c0.1-0.1,0.3-0.3,0.4-0.3c0.3-0.1,0.7-0.2,1.1-0.4
		c0.4-0.1,0.8-0.2,1.1-0.4C20.1,7.5,20.2,7.5,20.3,7.5z M1.1,14.8h4l0.3-1c1.1-3.6,2.2-7.4,2.8-11.2l0-0.2L8,2.3
		C5.8,1.5,3.6,1.3,1.4,1.1l-0.3,0V14.8z"/>
</g>
<g id="Layer_5">
</g>
<g id="Layer_7">
</g>
</svg>
