<?xml version="1.0" encoding="utf-8"?>
<!-- Generator: Adobe Illustrator 21.1.0, SVG Export Plug-In . SVG Version: 6.00 Build 0)  -->
<svg version="1.1" xmlns="http://www.w3.org/2000/svg" xmlns:xlink="http://www.w3.org/1999/xlink" x="0px" y="0px"
	 viewBox="0 0 33.5 26.4" style="enable-background:new 0 0 33.5 26.4;" xml:space="preserve">
<style type="text/css">
	.st0{fill:#8D6A29;}
	.st1{fill:#FFF200;}
	.st2{fill:#493728;}
	.st3{fill:#8C8934;}
	.st4{fill:#F5C400;}
	.st5{fill:none;stroke:#F5C400;stroke-width:1.1164;stroke-miterlimit:10;}
	.st6{fill:none;stroke:#F5C400;stroke-miterlimit:10;}
	.st7{fill:#493728;stroke:#493728;stroke-width:0.8184;stroke-miterlimit:10;}
	.st8{fill:#493728;stroke:#F8F4F1;stroke-width:0.4008;stroke-miterlimit:2;}
	.st9{fill:none;stroke:#F5C400;stroke-width:1.7008;stroke-miterlimit:10;}
	.st10{fill:#8C8934;stroke:#8C8934;stroke-width:4;stroke-miterlimit:10;}
	.st11{fill:none;stroke:#8C8934;stroke-width:3;stroke-miterlimit:10;}
	.st12{fill:#F5C400;stroke:#F5C400;stroke-width:2.3804;stroke-miterlimit:10;}
	.st13{fill:none;stroke:#F5C400;stroke-width:3;stroke-miterlimit:10;}
	.st14{fill:#8D6A29;stroke:#8D6A29;stroke-width:5;stroke-miterlimit:10;}
	.st15{fill:none;stroke:#8D6A29;stroke-width:3;stroke-miterlimit:10;}
	.st16{fill:#8C8934;stroke:#8C8934;stroke-width:3.1221;stroke-miterlimit:10;}
	.st17{fill:#8C8934;stroke:#8C8934;stroke-width:2.8346;stroke-miterlimit:10;}
	.st18{fill:#F5C400;stroke:#F5C400;stroke-width:0.6234;stroke-miterlimit:10;}
	.st19{fill:#8D6A29;stroke:#8D6A29;stroke-width:0.5;stroke-miterlimit:10;}
	.st20{fill:#8D6A29;stroke:#8D6A29;stroke-width:1.114;stroke-miterlimit:10;}
	.st21{fill:#8D6A29;stroke:#8D6A29;stroke-width:0.6134;stroke-miterlimit:10;}
	.st22{fill:none;stroke:#8D6A29;stroke-width:2.5;stroke-miterlimit:10;}
	.st23{fill:#8D6A29;stroke:#8D6A29;stroke-width:0.1417;stroke-miterlimit:10;}
	.st24{fill:none;stroke:#8D6A29;stroke-width:1.1339;stroke-miterlimit:10;}
	.st25{fill:#493728;stroke:#493728;stroke-width:0.1417;stroke-miterlimit:10;}
</style>
<g id="foni">
</g>
<g id="Layer_2">
</g>
<g id="Grid">
</g>
<g id="ფონი">
</g>
<g id="masala">
	<g>
		<path class="st2" d="M0.6,26.4c-0.5,0-0.6-0.1-0.6-0.6V3.3c0-0.5,0.1-0.6,0.6-0.6l2,0V1.3c0-0.4,0.1-0.5,0.5-0.6
			C4.5,0.2,5.9,0,7.4,0c1.1,0,2.3,0.1,3.5,0.4c1.9,0.4,3.8,1.1,5.6,2.1c0.1,0,0.2,0.1,0.2,0.1c0.1,0,0.2,0,0.2-0.1
			c2.2-1.2,4.5-2,6.9-2.3C24.6,0.1,25.3,0,26.1,0c1.5,0,3,0.2,4.4,0.7c0.4,0.1,0.5,0.2,0.5,0.6v1.4l2.2,0c0.3,0,0.4,0.2,0.4,0.4
			c0,0.5,0,22.7,0,22.7c0,0.5-0.1,0.6-0.6,0.6H0.6z M0.9,25.6H14l1.3,0l-1.5-0.5c-1.9-0.7-3.8-1.1-5.7-1.2c-0.3,0-0.7,0-1,0
			c-1.4,0-2.7,0.2-4,0.5c0,0-0.1,0-0.1,0c-0.2,0-0.3-0.1-0.4-0.3c0-0.1,0-0.2,0-0.3l0-20.3H0.9V25.6z M26.3,23.9
			c-1.4,0-2.9,0.2-4.3,0.5c-0.5,0.1-1.1,0.3-1.6,0.4l-2.1,0.6l14.4,0v-22h-1.7c0,0,0,20.4,0,20.4c0,0.3-0.2,0.4-0.4,0.4
			c0,0-0.1,0-0.1,0L30,24.3C28.8,24.1,27.6,23.9,26.3,23.9z M26.1,0.9c-0.5,0-1,0-1.5,0.1c-2.4,0.2-4.8,1-7.1,2.2
			c-0.2,0.1-0.3,0.3-0.3,0.6c0,6,0,21.6,0,21.6l0.3-0.1c2-1,4-1.6,6-1.9c0.9-0.1,1.9-0.2,2.8-0.2c1.2,0,2.3,0.1,3.5,0.3l0.2,0v-22
			l-0.3-0.1C28.5,1,27.3,0.9,26.1,0.9z M7.2,23.1c3,0,5.9,0.7,8.8,2.1l0.3,0.1l0-21.6c0-0.2,0-0.4-0.3-0.5c-3-1.6-5.8-2.3-8.6-2.3
			c-0.6,0-1.2,0-1.8,0.1C5.2,1,4.7,1.1,4.2,1.2L3.5,1.4v22.1l0.2,0C4.9,23.2,6.1,23.1,7.2,23.1z"/>
	</g>
</g>
<g id="Layer_5">
</g>
<g id="Layer_7">
</g>
</svg>
