<?xml version="1.0" encoding="utf-8"?>
<!-- Generator: Adobe Illustrator 21.1.0, SVG Export Plug-In . SVG Version: 6.00 Build 0)  -->
<svg version="1.1" xmlns="http://www.w3.org/2000/svg" xmlns:xlink="http://www.w3.org/1999/xlink" x="0px" y="0px"
	 viewBox="0 0 29.9 30.5" style="enable-background:new 0 0 29.9 30.5;" xml:space="preserve">
<style type="text/css">
	.st0{fill:#8D6A29;}
	.st1{fill:#FFF200;}
	.st2{fill:#493728;}
	.st3{fill:#8C8934;}
	.st4{fill:#F5C400;}
	.st5{fill:none;stroke:#F5C400;stroke-width:1.1164;stroke-miterlimit:10;}
	.st6{fill:none;stroke:#F5C400;stroke-miterlimit:10;}
	.st7{fill:#493728;stroke:#493728;stroke-width:0.8184;stroke-miterlimit:10;}
	.st8{fill:#493728;stroke:#F8F4F1;stroke-width:0.4008;stroke-miterlimit:2;}
	.st9{fill:none;stroke:#F5C400;stroke-width:1.7008;stroke-miterlimit:10;}
	.st10{fill:#8C8934;stroke:#8C8934;stroke-width:4;stroke-miterlimit:10;}
	.st11{fill:none;stroke:#8C8934;stroke-width:3;stroke-miterlimit:10;}
	.st12{fill:#F5C400;stroke:#F5C400;stroke-width:2.3804;stroke-miterlimit:10;}
	.st13{fill:none;stroke:#F5C400;stroke-width:3;stroke-miterlimit:10;}
	.st14{fill:#8D6A29;stroke:#8D6A29;stroke-width:5;stroke-miterlimit:10;}
	.st15{fill:none;stroke:#8D6A29;stroke-width:3;stroke-miterlimit:10;}
	.st16{fill:#8C8934;stroke:#8C8934;stroke-width:3.1221;stroke-miterlimit:10;}
	.st17{fill:#8C8934;stroke:#8C8934;stroke-width:2.8346;stroke-miterlimit:10;}
	.st18{fill:#F5C400;stroke:#F5C400;stroke-width:0.6234;stroke-miterlimit:10;}
	.st19{fill:#8D6A29;stroke:#8D6A29;stroke-width:0.5;stroke-miterlimit:10;}
	.st20{fill:#8D6A29;stroke:#8D6A29;stroke-width:1.114;stroke-miterlimit:10;}
	.st21{fill:#8D6A29;stroke:#8D6A29;stroke-width:0.6134;stroke-miterlimit:10;}
	.st22{fill:none;stroke:#8D6A29;stroke-width:2.5;stroke-miterlimit:10;}
	.st23{fill:#8D6A29;stroke:#8D6A29;stroke-width:0.1417;stroke-miterlimit:10;}
	.st24{fill:none;stroke:#8D6A29;stroke-width:1.1339;stroke-miterlimit:10;}
	.st25{fill:#493728;stroke:#493728;stroke-width:0.1417;stroke-miterlimit:10;}
</style>
<g id="foni">
</g>
<g id="Layer_2">
</g>
<g id="Grid">
</g>
<g id="ფონი">
</g>
<g id="masala">
	<g>
		<path class="st2" d="M15.8,0c0.5,0.1,1.1,0.1,1.6,0.2c2.7,0.5,5,1.5,7.1,3.3c2.7,2.2,4.4,5.1,5,8.5c0.9,4.7-0.2,8.9-3.2,12.6
			c-2.4,2.9-5.5,4.6-9.1,5.2c-3.1,0.5-6.1,0-9-1.4c-0.2-0.1-0.4-0.1-0.6,0c-1,0.7-2,1.3-3,2c-0.3,0.2-0.6,0.2-0.8,0
			c-0.2-0.2-0.3-0.4-0.2-0.6c0.2-1.3,0.4-2.6,0.6-3.9c0-0.3,0-0.5-0.2-0.7c-2.6-2.9-4-6.2-4-10.1C0.1,9.1,2.8,4.7,7.9,1.8
			c1.8-1,3.8-1.6,5.9-1.7c0.1,0,0.2,0,0.2,0C14.6,0,15.2,0,15.8,0z M4.9,28.7c0.7-0.5,1.4-0.9,2.1-1.4c0.9-0.6,0.7-0.6,1.7-0.1
			c2.9,1.4,5.8,1.8,9,1.2c3.2-0.6,5.8-2.2,7.9-4.8c2.7-3.4,3.7-7.3,2.8-11.5c-0.6-3.2-2.2-5.8-4.7-7.8c-3.8-3.1-8.2-4-12.9-2.5
			C5.3,3.7,2.1,7.6,1.3,13.4C0.9,16,1.4,18.6,2.5,21c0.7,1.4,1.5,2.6,2.6,3.7c0.2,0.2,0.3,0.4,0.3,0.7c-0.1,0.4-0.1,0.9-0.2,1.3
			C5.1,27.3,5,28,4.9,28.7z"/>
		<path class="st2" d="M12.6,14.3c-0.1,0-0.1,0-0.2,0c-0.7,0-0.9-0.2-0.9-0.9c0-0.6,0-1.1,0-1.7c0-0.5,0.2-0.7,0.7-0.7
			c1.6,0,3.2,0,4.8,0c0.5,0,0.7,0.2,0.7,0.8c0,2.7,0,5.4,0,8.1c0,0.1,0,0.2,0,0.4c0.2,0,0.3,0,0.4,0c0.4,0,0.6,0.2,0.6,0.6
			c0,0.7,0,1.4,0,2.1c0,0.4-0.2,0.6-0.6,0.6c-2,0-4,0-6,0c-0.4,0-0.6-0.2-0.6-0.7c0-0.6,0-1.3,0-1.9c0-0.5,0.2-0.7,0.7-0.7
			c0.1,0,0.2,0,0.3,0C12.6,18.2,12.6,16.3,12.6,14.3z M17.7,21.4c-0.1,0-0.1,0-0.2,0c-0.8,0-0.9-0.2-0.9-0.9c0-2.7,0-5.3,0-8
			c0-0.1,0-0.2,0-0.4c-1.3,0-2.6,0-3.9,0c0,0.3,0,0.6,0,0.9c0.1,0,0.1,0,0.1,0c0.8,0,0.9,0.1,0.9,1c0,2.2,0,4.3,0,6.5
			c0,0.1,0,0.2,0,0.4c0,0.3-0.2,0.5-0.5,0.5c-0.2,0-0.3,0-0.5,0c0,0.3,0,0.6,0,0.9c1.7,0,3.3,0,5,0C17.7,22,17.7,21.8,17.7,21.4z"/>
		<path class="st2" d="M12.5,7.7c0-1.3,1.1-2.5,2.5-2.5c1.3,0,2.5,1.1,2.5,2.5c0,1.3-1.1,2.5-2.5,2.5C13.6,10.1,12.5,9,12.5,7.7z
			 M14.9,8.9c0.7,0,1.3-0.6,1.3-1.3c0-0.7-0.6-1.3-1.3-1.3c-0.7,0-1.3,0.6-1.3,1.3C13.7,8.4,14.2,8.9,14.9,8.9z"/>
	</g>
</g>
<g id="Layer_5">
</g>
<g id="Layer_7">
</g>
</svg>
