<?xml version="1.0" encoding="utf-8"?>
<!-- Generator: Adobe Illustrator 21.1.0, SVG Export Plug-In . SVG Version: 6.00 Build 0)  -->
<svg version="1.1" xmlns="http://www.w3.org/2000/svg" xmlns:xlink="http://www.w3.org/1999/xlink" x="0px" y="0px"
	 viewBox="0 0 35 35" style="enable-background:new 0 0 35 35;" xml:space="preserve">
<style type="text/css">
	.st0{fill:#8D6A29;}
	.st1{fill:#FFF200;}
	.st2{fill:#493728;}
	.st3{fill:#8C8934;}
	.st4{fill:#F5C400;}
	.st5{fill:none;stroke:#F5C400;stroke-width:1.1164;stroke-miterlimit:10;}
	.st6{fill:none;stroke:#F5C400;stroke-miterlimit:10;}
	.st7{fill:#493728;stroke:#493728;stroke-width:0.8184;stroke-miterlimit:10;}
	.st8{fill:#493728;stroke:#F8F4F1;stroke-width:0.4008;stroke-miterlimit:2;}
	.st9{fill:none;stroke:#F5C400;stroke-width:1.7008;stroke-miterlimit:10;}
	.st10{fill:#8C8934;stroke:#8C8934;stroke-width:4;stroke-miterlimit:10;}
	.st11{fill:none;stroke:#8C8934;stroke-width:3;stroke-miterlimit:10;}
	.st12{fill:#F5C400;stroke:#F5C400;stroke-width:2.3804;stroke-miterlimit:10;}
	.st13{fill:none;stroke:#F5C400;stroke-width:3;stroke-miterlimit:10;}
	.st14{fill:#8D6A29;stroke:#8D6A29;stroke-width:5;stroke-miterlimit:10;}
	.st15{fill:none;stroke:#8D6A29;stroke-width:3;stroke-miterlimit:10;}
	.st16{fill:#8C8934;stroke:#8C8934;stroke-width:3.1221;stroke-miterlimit:10;}
	.st17{fill:#8C8934;stroke:#8C8934;stroke-width:2.8346;stroke-miterlimit:10;}
	.st18{fill:#F5C400;stroke:#F5C400;stroke-width:0.6234;stroke-miterlimit:10;}
	.st19{fill:#8D6A29;stroke:#8D6A29;stroke-width:0.5;stroke-miterlimit:10;}
	.st20{fill:#8D6A29;stroke:#8D6A29;stroke-width:1.114;stroke-miterlimit:10;}
	.st21{fill:#8D6A29;stroke:#8D6A29;stroke-width:0.6134;stroke-miterlimit:10;}
	.st22{fill:none;stroke:#8D6A29;stroke-width:2.5;stroke-miterlimit:10;}
	.st23{fill:#8D6A29;stroke:#8D6A29;stroke-width:0.1417;stroke-miterlimit:10;}
	.st24{fill:none;stroke:#8D6A29;stroke-width:1.1339;stroke-miterlimit:10;}
	.st25{fill:#493728;stroke:#493728;stroke-width:0.1417;stroke-miterlimit:10;}
</style>
<g id="foni">
</g>
<g id="Layer_2">
</g>
<g id="Grid">
</g>
<g id="ფონი">
</g>
<g id="masala">
	<path class="st2" d="M16.9,35v-2.2l-0.4,0c-3.9-0.3-7.2-1.8-9.8-4.5c-2.7-2.7-4.2-6-4.5-9.8l0-0.4H0v-1.2h2.2l0-0.4
		C2.5,12.6,4,9.3,6.7,6.7c2.7-2.7,6-4.2,9.8-4.5l0.4,0V0h1.2v2.2l0.4,0c3.9,0.3,7.2,1.8,9.8,4.5c2.7,2.7,4.2,6,4.5,9.8l0,0.4H35v1.2
		h-2.2l0,0.4c-0.3,3.9-1.8,7.2-4.5,9.8c-2.7,2.7-6,4.2-9.8,4.5l-0.4,0V35H16.9z M26.5,18.5c-0.9,4.6-3.5,7.2-8,8l-0.4,0.1l0,4.3
		c0,0.1,0,0.1,0,0.2l0,0.5l0.4,0c6.8-0.4,12.8-6.3,13-13l0-0.5h-5L26.5,18.5z M3.4,18.6c0.5,6.8,6.3,12.7,13,13l0.5,0v-5.1l-0.4-0.1
		c-2.1-0.3-3.9-1.1-5.4-2.6c-1.5-1.5-2.3-3.2-2.6-5.3l-0.1-0.4H3.4L3.4,18.6z M9.8,18.6c0.3,3.3,3.2,6.2,6.6,6.6l0.5,0.1v-2.1h1.2v2
		l0.5-0.1c3.3-0.3,6.2-3.2,6.6-6.6l0.1-0.5h-2.1v-1.2h2l-0.1-0.5c-0.3-3.3-3.2-6.2-6.6-6.6l-0.5-0.1v2.1h-1.2v-2l-0.5,0.1
		c-3.3,0.3-6.2,3.2-6.6,6.6l-0.1,0.5h2.1v1.2h-2L9.8,18.6z M16.4,3.4c-6.8,0.3-12.7,6.3-13,13l0,0.5h5l0.1-0.4c0.9-4.6,3.5-7.2,8-8
		l0.4-0.1v-5L16.4,3.4z M18.1,8.5l0.4,0.1c4.2,0.5,7.4,3.8,8,8l0.1,0.4h5.1l0-0.5c-0.4-7.6-7.1-12.8-13-13l-0.5,0V8.5z"/>
</g>
<g id="Layer_5">
</g>
<g id="Layer_7">
</g>
</svg>
