<?xml version="1.0" encoding="utf-8"?>
<!-- Generator: Adobe Illustrator 21.1.0, SVG Export Plug-In . SVG Version: 6.00 Build 0)  -->
<svg version="1.1" xmlns="http://www.w3.org/2000/svg" xmlns:xlink="http://www.w3.org/1999/xlink" x="0px" y="0px"
	 viewBox="0 0 30.4 29.8" style="enable-background:new 0 0 30.4 29.8;" xml:space="preserve">
<style type="text/css">
	.st0{fill:#8D6A29;}
	.st1{fill:#FFF200;}
	.st2{fill:#493728;}
	.st3{fill:#8C8934;}
	.st4{fill:#F5C400;}
	.st5{fill:none;stroke:#F5C400;stroke-width:1.1164;stroke-miterlimit:10;}
	.st6{fill:none;stroke:#F5C400;stroke-miterlimit:10;}
	.st7{fill:#493728;stroke:#493728;stroke-width:0.8184;stroke-miterlimit:10;}
	.st8{fill:#493728;stroke:#F8F4F1;stroke-width:0.4008;stroke-miterlimit:2;}
	.st9{fill:none;stroke:#F5C400;stroke-width:1.7008;stroke-miterlimit:10;}
	.st10{fill:#8C8934;stroke:#8C8934;stroke-width:4;stroke-miterlimit:10;}
	.st11{fill:none;stroke:#8C8934;stroke-width:3;stroke-miterlimit:10;}
	.st12{fill:#F5C400;stroke:#F5C400;stroke-width:2.3804;stroke-miterlimit:10;}
	.st13{fill:none;stroke:#F5C400;stroke-width:3;stroke-miterlimit:10;}
	.st14{fill:#8D6A29;stroke:#8D6A29;stroke-width:5;stroke-miterlimit:10;}
	.st15{fill:none;stroke:#8D6A29;stroke-width:3;stroke-miterlimit:10;}
	.st16{fill:#8C8934;stroke:#8C8934;stroke-width:3.1221;stroke-miterlimit:10;}
	.st17{fill:#8C8934;stroke:#8C8934;stroke-width:2.8346;stroke-miterlimit:10;}
	.st18{fill:#F5C400;stroke:#F5C400;stroke-width:0.6234;stroke-miterlimit:10;}
	.st19{fill:#8D6A29;stroke:#8D6A29;stroke-width:0.5;stroke-miterlimit:10;}
	.st20{fill:#8D6A29;stroke:#8D6A29;stroke-width:1.114;stroke-miterlimit:10;}
	.st21{fill:#8D6A29;stroke:#8D6A29;stroke-width:0.6134;stroke-miterlimit:10;}
	.st22{fill:none;stroke:#8D6A29;stroke-width:2.5;stroke-miterlimit:10;}
	.st23{fill:#8D6A29;stroke:#8D6A29;stroke-width:0.1417;stroke-miterlimit:10;}
	.st24{fill:none;stroke:#8D6A29;stroke-width:1.1339;stroke-miterlimit:10;}
	.st25{fill:#493728;stroke:#493728;stroke-width:0.1417;stroke-miterlimit:10;}
</style>
<g id="foni">
</g>
<g id="Layer_2">
</g>
<g id="Grid">
</g>
<g id="ფონი">
</g>
<g id="masala">
	<g>
		<line class="st24" x1="0" y1="29.3" x2="30.4" y2="29.3"/>
		<polyline class="st24" points="7.7,29.3 11.5,18 15.2,6.7 19,18 22.7,29.3 		"/>
		<line class="st24" x1="10.8" y1="18.9" x2="19.7" y2="18.9"/>
		<circle class="st0" cx="15.2" cy="4.7" r="2.2"/>
		<path class="st24" d="M8.2,12.5c-0.9-1.4-1.5-3-1.5-4.8c0-2,0.7-3.8,1.8-5.3"/>
		<path class="st24" d="M21.9,2.4c1.1,1.4,1.8,3.3,1.8,5.3c0,1.7-0.5,3.3-1.4,4.7"/>
		<path class="st24" d="M5.2,14.5c-1.3-1.9-2.1-4.2-2.1-6.7c0-2.8,1-5.4,2.6-7.5"/>
		<path class="st24" d="M24.7,0.4c1.6,2.1,2.6,4.6,2.6,7.5c0,2.4-0.7,4.7-2,6.6"/>
	</g>
</g>
<g id="Layer_5">
</g>
<g id="Layer_7">
</g>
</svg>
